<?xml version="1.0" encoding="UTF-8" standalone="no"?>
<svg
   xmlns:dc="http://purl.org/dc/elements/1.1/"
   xmlns:cc="http://creativecommons.org/ns#"
   xmlns:rdf="http://www.w3.org/1999/02/22-rdf-syntax-ns#"
   xmlns:svg="http://www.w3.org/2000/svg"
   xmlns="http://www.w3.org/2000/svg"
   xmlns:sodipodi="http://sodipodi.sourceforge.net/DTD/sodipodi-0.dtd"
   xmlns:inkscape="http://www.inkscape.org/namespaces/inkscape"
   inkscape:version="1.0 (4035a4fb49, 2020-05-01)"
   height="32"
   width="32"
   sodipodi:docname="CSS.svg"
   id="svg18"
   version="1.1"
   viewBox="0 0 32 32">
  <metadata
     id="metadata24">
    <rdf:RDF>
      <cc:Work
         rdf:about="">
        <dc:format>image/svg+xml</dc:format>
        <dc:type
           rdf:resource="http://purl.org/dc/dcmitype/StillImage" />
        <dc:title>file_type_css</dc:title>
      </cc:Work>
    </rdf:RDF>
  </metadata>
  <defs
     id="defs22" />
  <sodipodi:namedview
     inkscape:current-layer="svg18"
     inkscape:window-maximized="1"
     inkscape:window-y="799"
     inkscape:window-x="-11"
     inkscape:cy="12.650072"
     inkscape:cx="12.344"
     inkscape:zoom="29.631209"
     fit-margin-bottom="0"
     fit-margin-right="0"
     fit-margin-left="0"
     fit-margin-top="0"
     showgrid="false"
     id="namedview20"
     inkscape:window-height="1216"
     inkscape:window-width="2304"
     inkscape:pageshadow="2"
     inkscape:pageopacity="0"
     guidetolerance="10"
     gridtolerance="10"
     objecttolerance="10"
     borderopacity="1"
     bordercolor="#666666"
     pagecolor="#ffffff" />
  <title
     id="title2">file_type_css</title>
  <polygon
     transform="matrix(1.1428629,0,0,1.1428629,-5.9418069,-4.2858069)"
     id="polygon4"
     style="fill:#1572b6"
     points="15.985,30 5.902,27.201 3.656,2 28.344,2 26.095,27.197 " />
  <polygon
     transform="matrix(1.1428629,0,0,1.1428629,-5.9418069,-4.2858069)"
     id="polygon6"
     style="fill:#33a9dc"
     points="24.17,25.593 26.092,4.061 16,4.061 16,27.858 " />
  <polygon
     transform="matrix(1.1428629,0,0,1.1428629,-5.9418069,-4.2858069)"
     id="polygon8"
     style="fill:#ffffff"
     points="16,16.282 16,13.191 20.09,13.191 20.372,10.026 16,10.026 16,6.935 16.011,6.935 23.75,6.935 23.676,7.764 22.917,16.282 " />
  <polygon
     transform="matrix(1.1428629,0,0,1.1428629,-5.9418069,-4.2858069)"
     id="polygon10"
     style="fill:#ebebeb"
     points="16.019,21.218 16.005,21.222 12.563,20.292 12.343,17.827 10.67,17.827 9.24,17.827 9.673,22.68 16.004,24.438 16.019,24.434 " />
  <polygon
     transform="matrix(1.1428629,0,0,1.1428629,-5.9418069,-4.2858069)"
     id="polygon12"
     style="fill:#ffffff"
     points="16.008,21.22 16.008,24.436 22.344,22.68 22.391,22.158 22.928,16.151 19.827,16.151 19.455,20.29 " />
  <polygon
     transform="matrix(1.1428629,0,0,1.1428629,-5.9418069,-4.2858069)"
     id="polygon14"
     style="fill:#ebebeb"
     points="8.268,6.935 16.011,6.935 16.011,8.855 16.011,10.018 16.011,10.026 8.555,10.026 8.545,10.026 8.483,9.331 8.342,7.764 " />
  <polygon
     transform="matrix(1.1428629,0,0,1.1428629,-5.9418069,-4.2858069)"
     id="polygon16"
     style="fill:#ebebeb"
     points="12.325,13.191 16,13.191 16,15.111 16,16.274 16,16.282 12.611,16.282 12.601,16.282 12.539,15.587 12.399,14.02 " />
</svg>
